<svg width="24" height="24" viewBox="0 0 24 24" fill="none" xmlns="http://www.w3.org/2000/svg">
<path fill-rule="evenodd" clip-rule="evenodd" d="M4 2C2.89543 2 2 2.89543 2 4V8.02295C2 8.57524 2.44772 9.02295 3 9.02295C3.55228 9.02295 4 8.57524 4 8.02295V4L7.9871 4C8.53938 4 8.9871 3.55228 8.9871 3C8.9871 2.44772 8.53938 2 7.9871 2H4ZM19.9983 22.0003C21.1028 22.0003 21.9983 21.1049 21.9983 20.0003V15.9773C21.9983 15.4251 21.5506 14.9773 20.9983 14.9773C20.446 14.9773 19.9983 15.4251 19.9983 15.9773V20.0003H16.0112C15.4589 20.0003 15.0112 20.448 15.0112 21.0003C15.0112 21.5526 15.4589 22.0003 16.0112 22.0003H19.9983ZM21.9983 4C21.9983 2.89543 21.1028 2 19.9983 2H16.0112C15.4589 2 15.0112 2.44772 15.0112 3C15.0112 3.55228 15.4589 4 16.0112 4L19.9983 4V8.02295C19.9983 8.57524 20.446 9.02295 20.9983 9.02295C21.5506 9.02295 21.9983 8.57524 21.9983 8.02295V4ZM4 22.0003C2.89543 22.0003 2 21.1049 2 20.0003V15.9773C2 15.4251 2.44772 14.9773 3 14.9773C3.55228 14.9773 4 15.4251 4 15.9773V20.0003H7.9871C8.53938 20.0003 8.9871 20.448 8.9871 21.0003C8.9871 21.5526 8.53938 22.0003 7.9871 22.0003H4Z" fill="white"/>
</svg>
