<svg width="24" height="24" viewBox="0 0 24 24" fill="none" xmlns="http://www.w3.org/2000/svg">
<path d="M20.6794 6.65159C21.3061 6.25992 21.3061 5.34726 20.6794 4.9556L16.3142 2.22732C15.6481 1.81104 14.7842 2.28988 14.7842 3.07531V8.53187C14.7842 9.31731 15.6481 9.79615 16.3142 9.37987L20.6794 6.65159Z" fill="white"/>
<path d="M3.55299 18.4363C2.92633 18.0446 2.92633 17.1319 3.553 16.7403L7.91824 14.012C8.58429 13.5957 9.44824 14.0745 9.44824 14.86V20.3165C9.44824 21.102 8.58429 21.5808 7.91824 21.1645L3.55299 18.4363Z" fill="white"/>
<path d="M4.81348 11.065V11.065C4.81348 8.06112 7.24862 5.62598 10.2525 5.62598V5.62598H14.785" stroke="white" stroke-width="2" stroke-linecap="round" stroke-linejoin="round"/>
<path d="M18.4102 11.9716V11.9716C18.4102 14.9755 15.975 17.4106 12.9711 17.4106V17.4106H8.4386" stroke="white" stroke-width="2" stroke-linecap="round" stroke-linejoin="round"/>
</svg>
