<svg width="24" height="24" viewBox="0 0 24 24" fill="none" xmlns="http://www.w3.org/2000/svg">
<path fill-rule="evenodd" clip-rule="evenodd" d="M5.06864 3.31218C3.73694 2.47038 2 3.42728 2 5.00274V18.997C2 20.5725 3.73694 21.5294 5.06864 20.6876L16.1379 13.6905C17.3797 12.9055 17.3797 11.0943 16.1379 10.3093L5.06864 3.31218ZM4 5.00274L15.0693 11.9999L4 18.997V5.00274ZM21.9995 4.16667C21.9995 3.61438 21.5518 3.16667 20.9995 3.16667C20.4472 3.16667 19.9995 3.61438 19.9995 4.16667V19.833C19.9995 20.3853 20.4472 20.833 20.9995 20.833C21.5518 20.833 21.9995 20.3853 21.9995 19.833V4.16667Z" fill="white"/>
<path d="M15.0693 11.9999L4 5.00274V18.997L15.0693 11.9999Z" fill="white"/>
</svg>
