<svg width="25" height="24" viewBox="0 0 25 24" fill="none" xmlns="http://www.w3.org/2000/svg">
<path d="M4.5 4V20H8.5V4H4.5Z" fill="white"/>
<path fill-rule="evenodd" clip-rule="evenodd" d="M4.5 4V20H8.5V4H4.5ZM3.5 2C2.94772 2 2.5 2.44772 2.5 3V21C2.5 21.5523 2.94772 22 3.5 22H9.5C10.0523 22 10.5 21.5523 10.5 21V3C10.5 2.44772 10.0523 2 9.5 2H3.5Z" fill="white"/>
<path fill-rule="evenodd" clip-rule="evenodd" d="M15.5 2C14.9477 2 14.5 2.44772 14.5 3V21C14.5 21.5523 14.9477 22 15.5 22H21.5C22.0523 22 22.5 21.5523 22.5 21V3C22.5 2.44772 22.0523 2 21.5 2H15.5ZM16.5 20V4H20.5V20H16.5Z" fill="white"/>
<path d="M16.5 4V20H20.5V4H16.5Z" fill="white"/>
</svg>
