<svg width="24" height="24" viewBox="0 0 24 24" fill="none" xmlns="http://www.w3.org/2000/svg">
<path d="M4 4V20H8V4H4Z" fill="white"/>
<path fill-rule="evenodd" clip-rule="evenodd" d="M4 4V20H8V4H4ZM3 2C2.44772 2 2 2.44772 2 3V21C2 21.5523 2.44772 22 3 22H9C9.55228 22 10 21.5523 10 21V3C10 2.44772 9.55228 2 9 2H3Z" fill="white"/>
<path fill-rule="evenodd" clip-rule="evenodd" d="M15 2C14.4477 2 14 2.44772 14 3V21C14 21.5523 14.4477 22 15 22H21C21.5523 22 22 21.5523 22 21V3C22 2.44772 21.5523 2 21 2H15ZM16 20V4H20V20H16Z" fill="white"/>
<path d="M16 4V20H20V4H16Z" fill="white"/>
</svg>
