<svg width="26" height="26" viewBox="0 0 26 26" fill="none" xmlns="http://www.w3.org/2000/svg">
<path fill-rule="evenodd" clip-rule="evenodd" d="M19.8607 21.7424C21.1857 22.5948 22.9302 21.6518 22.9427 20.0764L23.0544 6.08257C23.067 4.50716 21.3377 3.53643 19.9994 4.36757L8.87459 11.2762C7.62655 12.0512 7.6121 13.8623 8.8476 14.6572L19.8607 21.7424ZM20.9428 20.0605L9.9297 12.9752L21.0545 6.06661L20.9428 20.0605ZM2.93723 20.7529C2.93282 21.3051 3.37695 21.7564 3.92922 21.7608C4.48148 21.7652 4.93276 21.3211 4.93716 20.7688L5.06218 5.103C5.06659 4.55073 4.62246 4.09946 4.07019 4.09505C3.51793 4.09065 3.06665 4.53477 3.06225 5.08704L2.93723 20.7529Z" fill="white"/>
<path d="M9.9297 12.9752L20.9428 20.0605L21.0545 6.06661L9.9297 12.9752Z" fill="white"/>
</svg>
