<svg width="24" height="24" viewBox="0 0 24 24" fill="none" xmlns="http://www.w3.org/2000/svg">
<path d="M15.6618 17.4308C14.2394 17.4308 12.9079 16.8739 11.9199 15.9287" stroke="white" stroke-width="2" stroke-linecap="round" stroke-linejoin="round"/>
<path d="M7.68433 8.45861C6.45232 7.29344 4.79965 6.60791 3.03516 6.60791" stroke="white" stroke-width="2" stroke-linecap="round" stroke-linejoin="round"/>
<path d="M21.5207 18.4556C22.1473 18.0639 22.1473 17.1513 21.5207 16.7596L17.1921 14.0542C16.5261 13.638 15.6621 14.1168 15.6621 14.9022V20.313C15.6621 21.0984 16.5261 21.5772 17.1921 21.161L21.5207 18.4556Z" fill="white"/>
<path d="M15.662 6.60762V6.60762C13.4774 6.60762 11.507 7.9212 10.6668 9.93779L9.27922 13.268C8.22891 15.7887 5.76595 17.4307 3.03516 17.4307V17.4307" stroke="white" stroke-width="2" stroke-linecap="round" stroke-linejoin="round"/>
<path d="M20.6183 7.63235C21.245 7.24069 21.245 6.32803 20.6183 5.93636L16.2898 3.231C15.6237 2.81472 14.7598 3.29357 14.7598 4.079V9.48971C14.7598 10.2751 15.6237 10.754 16.2898 10.3377L20.6183 7.63235Z" fill="white"/>
</svg>
